<?xml version="1.0" encoding="UTF-8"?>
<!DOCTYPE svg PUBLIC "-//W3C//DTD SVG 1.1//EN" "http://www.w3.org/Graphics/SVG/1.1/DTD/svg11.dtd">
<svg xmlns="http://www.w3.org/2000/svg" version="1.1" width="256px" height="256px" style="shape-rendering:geometricPrecision; text-rendering:geometricPrecision; image-rendering:optimizeQuality; fill-rule:evenodd; clip-rule:evenodd" xmlns:xlink="http://www.w3.org/1999/xlink">
<g><path style="opacity:0.896" fill="#000000" d="M 114.5,9.5 C 166.508,6.4148 205.675,27.0815 232,71.5C 248.859,106.368 249.859,141.701 235,177.5C 215.497,216.652 183.997,239.152 140.5,245C 88.469,248.572 49.3024,228.072 23,183.5C 5,146.167 5,108.833 23,71.5C 43.4025,35.9308 73.9025,15.2641 114.5,9.5 Z M 116.5,20.5 C 161.342,18.5021 195.842,36.1688 220,73.5C 241.805,115.761 238.805,156.094 211,194.5C 180.227,229.644 142.06,241.477 96.5,230C 52.6547,214.482 27.488,183.648 21,137.5C 19.348,84.8609 42.5147,48.0276 90.5,27C 99.1404,24.1732 107.807,22.0065 116.5,20.5 Z"/></g>
<g><path style="opacity:0.863" fill="#000000" d="M 124.5,86.5 C 128.49,85.6155 131.323,86.9489 133,90.5C 133.5,100.828 133.666,111.161 133.5,121.5C 143.839,121.334 154.172,121.5 164.5,122C 171.167,125.667 171.167,129.333 164.5,133C 154.172,133.5 143.839,133.666 133.5,133.5C 133.666,143.839 133.5,154.172 133,164.5C 131.309,168.213 128.475,169.379 124.5,168C 123.299,167.097 122.465,165.931 122,164.5C 121.5,154.172 121.334,143.839 121.5,133.5C 111.161,133.666 100.828,133.5 90.5,133C 83.8333,129.333 83.8333,125.667 90.5,122C 100.828,121.5 111.161,121.334 121.5,121.5C 121.334,111.161 121.5,100.828 122,90.5C 122.48,88.867 123.313,87.5336 124.5,86.5 Z"/></g>
</svg>
